<?xml version="1.0" encoding="utf-8"?>
<svg width="1024px" height="512px" viewBox="0 0 1024 512" version="1.1" xmlns:xlink="http://www.w3.org/1999/xlink" xmlns="http://www.w3.org/2000/svg">
  <defs>
    <linearGradient gradientUnits="userSpaceOnUse" x1="0" y1="0" x2="1024" y2="512" id="gradient_1">
      <stop offset="0%" stop-color="#3F4C98" />
      <stop offset="100%" stop-color="#2C2A8F" />
    </linearGradient>
    <filter filterUnits="userSpaceOnUse" color-interpolation-filters="sRGB" id="filter_1">
      <feFlood flood-opacity="0" result="BackgroundImageFix" />
      <feColorMatrix in="SourceAlpha" type="matrix" values="0 0 0 0 0 0 0 0 0 0 0 0 0 0 0 0 0 0 127 0" />
      <feOffset dx="0" dy="2" />
      <feGaussianBlur stdDeviation="25" />
      <feColorMatrix type="matrix" values="0 0 0 0 0.1254902 0 0 0 0 0.1254902 0 0 0 0 0.14509805 0 0 0 1 0" />
      <feBlend mode="normal" in2="BackgroundImageFix" result="effect0_dropShadow" />
      <feBlend mode="normal" in="SourceGraphic" in2="effect0_dropShadow" result="shape" />
    </filter>
    <rect width="1024" height="512" id="artboard_1" />
    <clipPath id="clip_1">
      <use xlink:href="#artboard_1" clip-rule="evenodd" />
    </clipPath>
  </defs>
  <g id="Hexagn-Preview" clip-path="url(#clip_1)">
    <use xlink:href="#artboard_1" stroke="none" fill="#202025" />
    <path d="M0 0L1024 0L1024 512L0 512L0 0Z" id="Rectangle" fill="url(#gradient_1)" fill-rule="evenodd" stroke="none" artboard="b2c7c3fd-569b-4adb-8615-69e8ce41dcd6" />
    <path d="M112 73.8L912 73.8L912 438.8L112 438.8L112 73.8Z" id="Mask" fill="#202025" fill-rule="evenodd" stroke="none" filter="url(#filter_1)" artboard="0c7f14ec-33ec-404d-bd32-7eb88a3fc9fe" />
    <g id="import-io;--int8-main()-{" transform="translate(147 139)" artboard="92465c89-ce75-4483-be8b-a6b679907766">
      <g id="import" fill="#F0A0F0">
        <path d="M12.411 8.65Q11.808 8.038 10.8 8.038Q9.846 8.038 9.234 8.65Q8.622 9.262 8.622 10.144Q8.622 11.062 9.234 11.683Q9.846 12.304 10.8 12.304Q11.808 12.304 12.411 11.683Q13.014 11.062 13.014 10.144Q13.014 9.262 12.411 8.65ZM124.308 35.92Q125.694 35.56 126.666 34.912L125.496 32.86Q124.722 33.256 123.822 33.508Q122.922 33.76 121.86 33.76Q119.916 33.76 119.079 32.932Q118.242 32.104 118.242 30.52L118.242 19.252L124.434 19.252L124.794 16.912L118.242 16.912L118.242 12.25L115.218 12.61L115.218 16.912L110.862 16.912L110.862 19.252L115.218 19.252L115.218 30.556Q115.218 33.076 116.874 34.678Q118.53 36.28 121.59 36.28Q122.922 36.28 124.308 35.92ZM90.198 35.866L90.198 33.544L93.15 33.544L93.15 19.234L90.198 19.234L90.198 16.912L95.454 16.912L96.012 21.394Q97.11 19.054 98.676 17.776Q100.242 16.498 102.816 16.498Q103.608 16.498 104.229 16.615Q104.85 16.732 105.498 16.912L105.066 23.32L102.582 23.32L102.582 19.2894Q102.502 19.288 102.42 19.288Q100.242 19.288 98.676 20.836Q97.11 22.384 96.174 25.516L96.174 33.544L100.026 33.544L100.026 35.866L90.198 35.866ZM39.465 16.912Q38.628 16.516 37.71 16.516Q36.252 16.516 35.28 17.209Q34.308 17.902 33.534 19.018Q33.084 17.542 32.13 17.029Q31.176 16.516 30.096 16.516Q28.674 16.516 27.711 17.263Q26.748 18.01 25.974 19.108L25.794 16.912L23.418 16.912L23.418 35.866L26.208 35.866L26.208 21.142Q27 19.936 27.819 19.405Q28.638 18.874 29.52 18.874Q30.546 18.874 30.762 19.666Q30.978 20.458 30.978 22.24L30.978 35.866L33.804 35.866L33.804 21.142Q34.596 19.936 35.433 19.405Q36.27 18.874 37.116 18.874Q38.142 18.874 38.358 19.666Q38.574 20.458 38.574 22.24L38.574 35.866L41.382 35.866L41.382 21.754Q41.382 19.576 40.842 18.442Q40.302 17.308 39.465 16.912ZM55.296 16.516Q57.816 16.516 59.319 17.74Q60.822 18.964 61.488 21.187Q62.154 23.41 62.154 26.38Q62.154 29.242 61.353 31.483Q60.552 33.724 58.932 35.002Q57.312 36.28 54.846 36.28Q51.732 36.28 49.842 34.084L49.842 43.12L46.818 43.498L46.818 16.912L49.392 16.912L49.644 19.558Q50.688 18.1 52.137 17.308Q53.586 16.516 55.296 16.516ZM80.127 17.731Q78.318 16.516 75.636 16.516Q72.972 16.516 71.145 17.767Q69.318 19.018 68.382 21.25Q67.446 23.482 67.446 26.416Q67.446 29.386 68.373 31.609Q69.3 33.832 71.118 35.056Q72.936 36.28 75.6 36.28Q78.264 36.28 80.073 35.011Q81.882 33.742 82.818 31.51Q83.754 29.278 83.754 26.38Q83.754 23.374 82.845 21.16Q81.936 18.946 80.127 17.731ZM13.212 33.472L13.212 16.912L4.518 16.912L4.518 19.306L10.188 19.306L10.188 33.472L4.338 33.472L4.338 35.866L18.558 35.866L18.558 33.472L13.212 33.472ZM54.576 18.946Q53.01 18.946 51.813 19.891Q50.616 20.836 49.842 21.988L49.842 31.384Q50.58 32.482 51.705 33.121Q52.83 33.76 54.18 33.76Q56.538 33.76 57.726 31.96Q58.914 30.16 58.914 26.362Q58.914 23.878 58.446 22.231Q57.978 20.584 57.024 19.765Q56.07 18.946 54.576 18.946ZM71.937 20.791Q73.188 18.982 75.636 18.982Q78.066 18.982 79.29 20.791Q80.514 22.6 80.514 26.38Q80.514 30.16 79.281 31.978Q78.048 33.796 75.6 33.796Q73.152 33.796 71.919 31.978Q70.686 30.16 70.686 26.416Q70.686 22.6 71.937 20.791Z" />
      </g>
      <g id="-io;" fill="#F0F0F5">
        <path d="M162 8.038Q163.008 8.038 163.611 8.65Q164.214 9.262 164.214 10.144Q164.214 11.062 163.611 11.683Q163.008 12.304 162 12.304Q161.046 12.304 160.434 11.683Q159.822 11.062 159.822 10.144Q159.822 9.262 160.434 8.65Q161.046 8.038 162 8.038ZM183.636 16.516Q186.318 16.516 188.127 17.731Q189.936 18.946 190.845 21.16Q191.754 23.374 191.754 26.38Q191.754 29.278 190.818 31.51Q189.882 33.742 188.073 35.011Q186.264 36.28 183.6 36.28Q180.936 36.28 179.118 35.056Q177.3 33.832 176.373 31.609Q175.446 29.386 175.446 26.416Q175.446 23.482 176.382 21.25Q177.318 19.018 179.145 17.767Q180.972 16.516 183.636 16.516ZM164.412 16.912L164.412 33.472L169.758 33.472L169.758 35.866L155.538 35.866L155.538 33.472L161.388 33.472L161.388 19.306L155.718 19.306L155.718 16.912L164.412 16.912ZM207.261 18.316Q206.424 17.47 205.164 17.47Q203.94 17.47 203.103 18.316Q202.266 19.162 202.266 20.368Q202.266 21.556 203.103 22.429Q203.94 23.302 205.164 23.302Q206.424 23.302 207.261 22.429Q208.098 21.556 208.098 20.368Q208.098 19.162 207.261 18.316ZM183.636 18.982Q181.188 18.982 179.937 20.791Q178.686 22.6 178.686 26.416Q178.686 30.16 179.919 31.978Q181.152 33.796 183.6 33.796Q186.048 33.796 187.281 31.978Q188.514 30.16 188.514 26.38Q188.514 22.6 187.29 20.791Q186.066 18.982 183.636 18.982ZM207.261 30.763Q206.424 29.908 205.164 29.908Q203.94 29.908 203.103 30.754Q202.266 31.6 202.266 32.806Q202.266 34.372 203.454 35.2L201.726 42.346L204.462 42.346L207.378 35.65Q207.792 34.786 207.945 34.12Q208.098 33.454 208.098 32.788Q208.098 31.618 207.261 30.763Z" />
      </g>
      <g id="int8-main" fill="#A0A0F0">
        <path d="M12.411 102.65Q11.808 102.038 10.8 102.038Q9.846 102.038 9.234 102.65Q8.622 103.262 8.622 104.144Q8.622 105.062 9.234 105.683Q9.846 106.304 10.8 106.304Q11.808 106.304 12.411 105.683Q13.014 105.062 13.014 104.144Q13.014 103.262 12.411 102.65ZM162 102.038Q163.008 102.038 163.611 102.65Q164.214 103.262 164.214 104.144Q164.214 105.062 163.611 105.683Q163.008 106.304 162 106.304Q161.046 106.304 160.434 105.683Q159.822 105.062 159.822 104.144Q159.822 103.262 160.434 102.65Q161.046 102.038 162 102.038ZM81.918 114.107Q83.034 112.784 83.034 110.984Q83.034 109.328 82.395 108.14Q81.756 106.952 80.676 106.187Q79.596 105.422 78.273 105.053Q76.95 104.684 75.6 104.684Q74.376 104.684 73.071 105.053Q71.766 105.422 70.659 106.214Q69.552 107.006 68.859 108.221Q68.166 109.436 68.166 111.146Q68.166 113.216 69.165 114.548Q70.164 115.88 72.126 116.816Q69.876 117.842 68.517 119.417Q67.158 120.992 67.158 123.278Q67.158 125.258 68.139 126.842Q69.12 128.426 71.001 129.353Q72.882 130.28 75.528 130.28Q78.156 130.28 80.055 129.362Q81.954 128.444 82.998 126.842Q84.042 125.24 84.042 123.224Q84.042 120.92 82.602 119.246Q81.162 117.572 78.732 116.564Q80.802 115.43 81.918 114.107ZM61.866 128.912Q60.894 129.56 59.508 129.92Q58.122 130.28 56.79 130.28Q53.73 130.28 52.074 128.678Q50.418 127.076 50.418 124.556L50.418 113.252L46.062 113.252L46.062 110.912L50.418 110.912L50.418 106.61L53.442 106.25L53.442 110.912L59.994 110.912L59.634 113.252L53.442 113.252L53.442 124.52Q53.442 126.104 54.279 126.932Q55.116 127.76 57.06 127.76Q58.122 127.76 59.022 127.508Q59.922 127.256 60.696 126.86L61.866 128.912ZM71.811 113.414Q71.154 112.604 71.154 111.182Q71.154 109.22 72.324 108.122Q73.494 107.024 75.6 107.024Q77.724 107.024 78.885 108.122Q80.046 109.22 80.046 111.092Q80.046 112.784 79.182 113.801Q78.318 114.818 76.59 115.808Q74.916 115.25 73.692 114.737Q72.468 114.224 71.811 113.414ZM25.218 110.912L25.218 129.866L28.242 129.866L28.242 116.06Q28.746 115.322 29.511 114.593Q30.276 113.864 31.257 113.378Q32.238 112.892 33.354 112.892Q34.794 112.892 35.478 113.441Q36.162 113.99 36.378 115.187Q36.594 116.384 36.594 118.328L36.594 129.866L39.618 129.866L39.618 116.096Q39.618 113.468 38.349 111.992Q37.08 110.516 34.29 110.516Q32.652 110.516 30.915 111.299Q29.178 112.082 28.026 113.54L27.792 110.912L25.218 110.912ZM124.11 110.516Q125.028 110.516 125.865 110.912Q126.702 111.308 127.242 112.442Q127.782 113.576 127.782 115.754L127.782 129.866L124.974 129.866L124.974 116.24Q124.974 114.458 124.758 113.666Q124.542 112.874 123.516 112.874Q122.67 112.874 121.833 113.405Q120.996 113.936 120.204 115.142L120.204 129.866L117.378 129.866L117.378 116.24Q117.378 114.458 117.162 113.666Q116.946 112.874 115.92 112.874Q115.038 112.874 114.219 113.405Q113.4 113.936 112.608 115.142L112.608 129.866L109.818 129.866L109.818 110.912L112.194 110.912L112.374 113.108Q113.148 112.01 114.111 111.263Q115.074 110.516 116.496 110.516Q117.576 110.516 118.53 111.029Q119.484 111.542 119.934 113.018Q120.708 111.902 121.68 111.209Q122.652 110.516 124.11 110.516ZM147.168 127.382Q146.79 126.86 146.79 125.726L146.79 116.636Q146.79 113.81 145.017 112.163Q143.244 110.516 139.698 110.516Q138.312 110.516 136.782 110.786Q135.252 111.056 133.506 111.704L134.298 113.99Q135.774 113.468 137.034 113.243Q138.294 113.018 139.23 113.018Q141.354 113.018 142.551 113.873Q143.748 114.728 143.748 116.78L143.748 118.364L140.958 118.364Q136.638 118.364 134.352 119.93Q132.066 121.496 132.066 124.43Q132.066 127.076 133.704 128.678Q135.342 130.28 138.186 130.28Q140.04 130.28 141.57 129.605Q143.1 128.93 144.126 127.616Q144.54 128.876 145.458 129.497Q146.376 130.118 147.6 130.28L148.338 128.156Q147.546 127.904 147.168 127.382ZM176.418 110.912L176.418 129.866L179.442 129.866L179.442 116.06Q179.946 115.322 180.711 114.593Q181.476 113.864 182.457 113.378Q183.438 112.892 184.554 112.892Q185.994 112.892 186.678 113.441Q187.362 113.99 187.578 115.187Q187.794 116.384 187.794 118.328L187.794 129.866L190.818 129.866L190.818 116.096Q190.818 113.468 189.549 111.992Q188.28 110.516 185.49 110.516Q183.852 110.516 182.115 111.299Q180.378 112.082 179.226 113.54L178.992 110.912L176.418 110.912ZM13.212 127.472L13.212 110.912L4.518 110.912L4.518 113.306L10.188 113.306L10.188 127.472L4.338 127.472L4.338 129.866L18.558 129.866L18.558 127.472L13.212 127.472ZM164.412 110.912L164.412 127.472L169.758 127.472L169.758 129.866L155.538 129.866L155.538 127.472L161.388 127.472L161.388 113.306L155.718 113.306L155.718 110.912L164.412 110.912ZM80.01 120.614Q80.856 121.586 80.856 123.26Q80.856 125.222 79.479 126.527Q78.102 127.832 75.51 127.832Q72.954 127.832 71.649 126.617Q70.344 125.402 70.344 123.296Q70.344 121.73 70.884 120.659Q71.424 119.588 72.306 118.868Q73.188 118.148 74.214 117.68Q76.176 118.346 77.67 118.994Q79.164 119.642 80.01 120.614ZM141.642 127.265Q140.364 127.976 138.96 127.976Q137.124 127.976 136.215 127.067Q135.306 126.158 135.306 124.394Q135.306 122.576 136.593 121.496Q137.88 120.416 141.012 120.416L143.748 120.416L143.748 125.294Q142.92 126.554 141.642 127.265Z" />
      </g>
      <g id="()-{" fill="#F0F0F5">
        <path d="M202.05 117.266Q202.05 121.01 202.905 123.746Q203.76 126.482 205.47 128.732Q207.18 130.982 209.754 133.25L208.17 134.906Q205.254 132.512 203.175 130.01Q201.096 127.508 199.989 124.43Q198.882 121.352 198.882 117.266Q198.882 113.162 199.989 110.084Q201.096 107.006 203.175 104.504Q205.254 102.002 208.17 99.626L209.754 101.282Q207.81 103.01 206.361 104.675Q204.912 106.34 203.958 108.167Q203.004 109.994 202.527 112.217Q202.05 114.44 202.05 117.266ZM229.95 117.266Q229.95 114.44 229.473 112.217Q228.996 109.994 228.042 108.167Q227.088 106.34 225.639 104.675Q224.19 103.01 222.246 101.282L223.83 99.626Q226.764 102.002 228.834 104.504Q230.904 107.006 232.011 110.084Q233.118 113.162 233.118 117.266Q233.118 121.352 232.011 124.43Q230.904 127.508 228.834 130.01Q226.764 132.512 223.83 134.906L222.246 133.25Q224.82 130.982 226.53 128.732Q228.24 126.482 229.095 123.746Q229.95 121.01 229.95 117.266ZM275.454 102.164L275.454 99.788Q273.942 99.788 272.547 100.049Q271.152 100.31 270.099 100.94Q269.046 101.57 268.506 102.659Q267.966 103.748 268.146 105.404L268.866 112.28Q269.01 113.504 268.641 114.35Q268.272 115.196 267.057 115.628Q265.842 116.06 263.43 116.06L263.43 118.472Q265.842 118.472 267.057 118.913Q268.272 119.354 268.641 120.2Q269.01 121.046 268.866 122.288L268.146 129.128Q267.966 130.784 268.506 131.873Q269.046 132.962 270.108 133.592Q271.17 134.222 272.556 134.483Q273.942 134.744 275.454 134.744L275.454 132.368Q274.14 132.368 273.06 132.116Q271.98 131.864 271.404 131.234Q270.828 130.604 270.918 129.488L271.674 122.108Q271.836 120.506 271.512 119.525Q271.188 118.544 270.378 118.013Q269.568 117.482 268.308 117.266Q269.55 117.032 270.351 116.474Q271.152 115.916 271.494 114.926Q271.836 113.936 271.674 112.424L270.918 105.044Q270.828 103.946 271.413 103.316Q271.998 102.686 273.069 102.425Q274.14 102.164 275.454 102.164Z" />
      </g>
      <g id="println" fill="#A0A0F0">
        <path d="M142.011 149.65Q141.408 149.038 140.4 149.038Q139.446 149.038 138.834 149.65Q138.222 150.262 138.222 151.144Q138.222 152.062 138.834 152.683Q139.446 153.304 140.4 153.304Q141.408 153.304 142.011 152.683Q142.614 152.062 142.614 151.144Q142.614 150.262 142.011 149.65ZM205.398 150.28L205.398 172.186Q205.398 173.59 206.271 174.175Q207.144 174.76 208.53 174.76Q209.394 174.76 210.168 174.58Q210.942 174.4 211.716 174.094L212.526 176.308Q211.752 176.686 210.609 176.983Q209.466 177.28 208.026 177.28Q205.506 177.28 203.94 175.885Q202.374 174.49 202.374 172.024L202.374 152.674L196.56 152.674L196.56 150.28L205.398 150.28ZM189.108 176.92Q190.494 176.56 191.466 175.912L190.296 173.86Q189.522 174.256 188.622 174.508Q187.722 174.76 186.66 174.76Q184.716 174.76 183.879 173.932Q183.042 173.104 183.042 171.52L183.042 160.252L189.234 160.252L189.594 157.912L183.042 157.912L183.042 153.25L180.018 153.61L180.018 157.912L175.662 157.912L175.662 160.252L180.018 160.252L180.018 171.556Q180.018 174.076 181.674 175.678Q183.33 177.28 186.39 177.28Q187.722 177.28 189.108 176.92ZM111.798 176.866L111.798 174.544L114.75 174.544L114.75 160.234L111.798 160.234L111.798 157.912L117.054 157.912L117.612 162.394Q118.71 160.054 120.276 158.776Q121.842 157.498 124.416 157.498Q125.208 157.498 125.829 157.615Q126.45 157.732 127.098 157.912L126.666 164.32L124.182 164.32L124.182 160.289Q124.103 160.288 124.02 160.288Q121.842 160.288 120.276 161.836Q118.71 163.384 117.774 166.516L117.774 174.544L121.626 174.544L121.626 176.866L111.798 176.866ZM98.496 157.516Q101.016 157.516 102.519 158.74Q104.022 159.964 104.688 162.187Q105.354 164.41 105.354 167.38Q105.354 170.242 104.553 172.483Q103.752 174.724 102.132 176.002Q100.512 177.28 98.046 177.28Q94.932 177.28 93.042 175.084L93.042 184.12L90.018 184.498L90.018 157.912L92.592 157.912L92.844 160.558Q93.888 159.1 95.337 158.308Q96.786 157.516 98.496 157.516ZM154.818 176.866L154.818 157.912L157.392 157.912L157.626 160.54Q158.778 159.082 160.515 158.299Q162.252 157.516 163.89 157.516Q166.68 157.516 167.949 158.992Q169.218 160.468 169.218 163.096L169.218 176.866L166.194 176.866L166.194 165.328Q166.194 163.384 165.978 162.187Q165.762 160.99 165.078 160.441Q164.394 159.892 162.954 159.892Q161.838 159.892 160.857 160.378Q159.876 160.864 159.111 161.593Q158.346 162.322 157.842 163.06L157.842 176.866L154.818 176.866ZM219.618 157.912L219.618 176.866L222.642 176.866L222.642 163.06Q223.146 162.322 223.911 161.593Q224.676 160.864 225.657 160.378Q226.638 159.892 227.754 159.892Q229.194 159.892 229.878 160.441Q230.562 160.99 230.778 162.187Q230.994 163.384 230.994 165.328L230.994 176.866L234.018 176.866L234.018 163.096Q234.018 160.468 232.749 158.992Q231.48 157.516 228.69 157.516Q227.052 157.516 225.315 158.299Q223.578 159.082 222.426 160.54L222.192 157.912L219.618 157.912ZM142.812 174.472L142.812 157.912L134.118 157.912L134.118 160.306L139.788 160.306L139.788 174.472L133.938 174.472L133.938 176.866L148.158 176.866L148.158 174.472L142.812 174.472ZM97.776 159.946Q96.21 159.946 95.013 160.891Q93.816 161.836 93.042 162.988L93.042 172.384Q93.78 173.482 94.905 174.121Q96.03 174.76 97.38 174.76Q99.738 174.76 100.926 172.96Q102.114 171.16 102.114 167.362Q102.114 164.878 101.646 163.231Q101.178 161.584 100.224 160.765Q99.27 159.946 97.776 159.946Z" />
      </g>
      <g id="(" fill="#F0F0F5">
        <path d="M245.25 164.266Q245.25 168.01 246.105 170.746Q246.96 173.482 248.67 175.732Q250.38 177.982 252.954 180.25L251.37 181.906Q248.454 179.512 246.375 177.01Q244.296 174.508 243.189 171.43Q242.082 168.352 242.082 164.266Q242.082 160.162 243.189 157.084Q244.296 154.006 246.375 151.504Q248.454 149.002 251.37 146.626L252.954 148.282Q251.01 150.01 249.561 151.675Q248.112 153.34 247.158 155.167Q246.204 156.994 245.727 159.217Q245.25 161.44 245.25 164.266Z" />
      </g>
      <g id="Hello,-GitHub!" fill="#A0F0A0">
        <path d="M466.011 149.65Q465.408 149.038 464.4 149.038Q463.446 149.038 462.834 149.65Q462.222 150.262 462.222 151.144Q462.222 152.062 462.834 152.683Q463.446 153.304 464.4 153.304Q465.408 153.304 466.011 152.683Q466.614 152.062 466.614 151.144Q466.614 150.262 466.011 149.65ZM549.045 158.263Q547.686 159.01 546.642 160.378L546.642 149.902L543.618 150.28L543.618 176.866L546.264 176.866L546.48 174.904Q548.352 177.28 551.646 177.28Q554.094 177.28 555.759 176.002Q557.424 174.724 558.288 172.483Q559.152 170.242 559.152 167.38Q559.152 164.41 558.432 162.187Q557.712 159.964 556.146 158.74Q554.58 157.516 552.042 157.516Q550.404 157.516 549.045 158.263ZM265.662 159.64L265.086 150.28L268.884 150.28L268.326 159.64L265.662 159.64ZM271.674 159.64L271.134 150.28L274.914 150.28L274.338 159.64L271.674 159.64ZM334.998 150.28L334.998 172.186Q334.998 173.59 335.871 174.175Q336.744 174.76 338.13 174.76Q338.994 174.76 339.768 174.58Q340.542 174.4 341.316 174.094L342.126 176.308Q341.352 176.686 340.209 176.983Q339.066 177.28 337.626 177.28Q335.106 177.28 333.54 175.885Q331.974 174.49 331.974 172.024L331.974 152.674L326.16 152.674L326.16 150.28L334.998 150.28ZM356.598 172.186L356.598 150.28L347.76 150.28L347.76 152.674L353.574 152.674L353.574 172.024Q353.574 174.49 355.14 175.885Q356.706 177.28 359.226 177.28Q360.666 177.28 361.809 176.983Q362.952 176.686 363.726 176.308L362.916 174.094Q362.142 174.4 361.368 174.58Q360.594 174.76 359.73 174.76Q358.344 174.76 357.471 174.175Q356.598 173.59 356.598 172.186ZM589.086 150.28L589.662 159.64L592.326 159.64L592.884 150.28L589.086 150.28ZM595.134 150.28L595.674 159.64L598.338 159.64L598.914 150.28L595.134 150.28ZM443.286 177.28Q440.352 177.28 438.183 175.858Q436.014 174.436 434.826 171.592Q433.638 168.748 433.638 164.464Q433.638 161.26 434.493 158.866Q435.348 156.472 436.815 154.87Q438.282 153.268 440.145 152.476Q442.008 151.684 444.006 151.684Q446.436 151.684 448.038 152.377Q449.64 153.07 451.098 154.402L449.208 156.364Q448.074 155.302 446.823 154.798Q445.572 154.294 444.024 154.294Q442.674 154.294 441.414 154.816Q440.154 155.338 439.155 156.517Q438.156 157.696 437.571 159.64Q436.986 161.584 436.986 164.464Q436.986 168.046 437.733 170.296Q438.48 172.546 439.947 173.599Q441.414 174.652 443.574 174.652Q444.87 174.652 446.031 174.346Q447.192 174.04 448.29 173.464L448.29 165.904L443.412 165.904L443.034 163.312L451.386 163.312L451.386 175.12Q449.712 176.02 447.822 176.65Q445.932 177.28 443.286 177.28ZM296.28 176.866L296.28 165.112L286.92 165.112L286.92 176.866L283.806 176.866L283.806 152.08L286.92 152.08L286.92 162.556L296.28 162.556L296.28 152.08L299.394 152.08L299.394 176.866L296.28 176.866ZM512.28 165.112L512.28 176.866L515.394 176.866L515.394 152.08L512.28 152.08L512.28 162.556L502.92 162.556L502.92 152.08L499.806 152.08L499.806 176.866L502.92 176.866L502.92 165.112L512.28 165.112ZM574.002 152.08L573.696 168.694L570.978 168.694L570.618 152.08L574.002 152.08ZM493.866 175.912Q492.894 176.56 491.508 176.92Q490.122 177.28 488.79 177.28Q485.73 177.28 484.074 175.678Q482.418 174.076 482.418 171.556L482.418 160.252L478.062 160.252L478.062 157.912L482.418 157.912L482.418 153.61L485.442 153.25L485.442 157.912L491.994 157.912L491.634 160.252L485.442 160.252L485.442 171.52Q485.442 173.104 486.279 173.932Q487.116 174.76 489.06 174.76Q490.122 174.76 491.022 174.508Q491.922 174.256 492.696 173.86L493.866 175.912ZM309.24 172.051Q308.484 170.656 308.394 168.46L321.138 168.46Q321.174 168.136 321.192 167.713Q321.21 167.29 321.21 166.804Q321.21 163.924 320.283 161.845Q319.356 159.766 317.628 158.641Q315.9 157.516 313.506 157.516Q310.986 157.516 309.132 158.794Q307.278 160.072 306.252 162.304Q305.226 164.536 305.226 167.416Q305.226 170.35 306.243 172.573Q307.26 174.796 309.204 176.038Q311.148 177.28 313.902 177.28Q315.684 177.28 317.385 176.686Q319.086 176.092 320.418 175.048L318.996 173.05Q317.754 173.896 316.575 174.328Q315.396 174.76 313.938 174.76Q312.48 174.76 311.238 174.103Q309.996 173.446 309.24 172.051ZM378.036 157.516Q380.718 157.516 382.527 158.731Q384.336 159.946 385.245 162.16Q386.154 164.374 386.154 167.38Q386.154 170.278 385.218 172.51Q384.282 174.742 382.473 176.011Q380.664 177.28 378 177.28Q375.336 177.28 373.518 176.056Q371.7 174.832 370.773 172.609Q369.846 170.386 369.846 167.416Q369.846 164.482 370.782 162.25Q371.718 160.018 373.545 158.767Q375.372 157.516 378.036 157.516ZM466.812 174.472L466.812 157.912L458.118 157.912L458.118 160.306L463.788 160.306L463.788 174.472L457.938 174.472L457.938 176.866L472.158 176.866L472.158 174.472L466.812 174.472ZM525.042 157.912L525.042 171.34Q525.042 173.212 525.816 174.04Q526.59 174.868 528.228 174.868Q529.794 174.868 531.189 173.977Q532.584 173.086 533.358 171.862L533.358 157.912L536.382 157.912L536.382 176.866L533.808 176.866L533.556 174.31Q532.44 175.75 530.802 176.515Q529.164 177.28 527.49 177.28Q524.736 177.28 523.377 175.813Q522.018 174.346 522.018 171.7L522.018 157.912L525.042 157.912ZM554.58 172.996Q553.302 174.832 550.926 174.832Q549.63 174.832 548.505 174.166Q547.38 173.5 546.642 172.384L546.642 162.988Q547.416 161.836 548.613 160.891Q549.81 159.946 551.394 159.946Q552.852 159.946 553.851 160.765Q554.85 161.584 555.354 163.231Q555.858 164.878 555.858 167.362Q555.858 171.16 554.58 172.996ZM378.036 159.982Q375.588 159.982 374.337 161.791Q373.086 163.6 373.086 167.416Q373.086 171.16 374.319 172.978Q375.552 174.796 378 174.796Q380.448 174.796 381.681 172.978Q382.914 171.16 382.914 167.38Q382.914 163.6 381.69 161.791Q380.466 159.982 378.036 159.982ZM310.023 161.494Q311.436 160 313.542 160Q315.684 160 316.962 161.539Q318.24 163.078 318.294 166.12L308.412 166.12Q308.61 162.988 310.023 161.494ZM401.679 171.79Q400.842 170.944 399.6 170.944Q398.376 170.944 397.548 171.781Q396.72 172.618 396.72 173.824Q396.72 174.544 397.035 175.183Q397.35 175.822 397.89 176.218L396.162 183.328L398.898 183.328L401.814 176.65Q402.21 175.804 402.363 175.138Q402.516 174.472 402.516 173.824Q402.516 172.636 401.679 171.79ZM572.364 172.456Q573.408 172.456 574.101 173.158Q574.794 173.86 574.794 174.85Q574.794 175.858 574.101 176.569Q573.408 177.28 572.364 177.28Q571.338 177.28 570.654 176.569Q569.97 175.858 569.97 174.85Q569.97 173.86 570.654 173.158Q571.338 172.456 572.364 172.456Z" />
      </g>
      <g id=");" fill="#F0F0F5">
        <path d="M618.273 159.217Q618.75 161.44 618.75 164.266Q618.75 168.01 617.895 170.746Q617.04 173.482 615.33 175.732Q613.62 177.982 611.046 180.25L612.63 181.906Q615.564 179.512 617.634 177.01Q619.704 174.508 620.811 171.43Q621.918 168.352 621.918 164.266Q621.918 160.162 620.811 157.084Q619.704 154.006 617.634 151.504Q615.564 149.002 612.63 146.626L611.046 148.282Q612.99 150.01 614.439 151.675Q615.888 153.34 616.842 155.167Q617.796 156.994 618.273 159.217ZM639.261 159.316Q638.424 158.47 637.164 158.47Q635.94 158.47 635.103 159.316Q634.266 160.162 634.266 161.368Q634.266 162.556 635.103 163.429Q635.94 164.302 637.164 164.302Q638.424 164.302 639.261 163.429Q640.098 162.556 640.098 161.368Q640.098 160.162 639.261 159.316ZM639.261 171.763Q638.424 170.908 637.164 170.908Q635.94 170.908 635.103 171.754Q634.266 172.6 634.266 173.806Q634.266 175.372 635.454 176.2L633.726 183.346L636.462 183.346L639.378 176.65Q639.792 175.786 639.945 175.12Q640.098 174.454 640.098 173.788Q640.098 172.618 639.261 171.763Z" />
      </g>
      <g id="}" fill="#F0F0F5">
        <path d="M5.346 194.026Q6.858 194.026 8.244 194.287Q9.63 194.548 10.692 195.178Q11.754 195.808 12.303 196.897Q12.852 197.986 12.654 199.642L11.934 206.518Q11.79 207.742 12.249 208.588Q12.708 209.434 13.932 209.866Q15.156 210.298 17.37 210.298L17.37 212.71Q15.174 212.71 13.941 213.151Q12.708 213.592 12.249 214.438Q11.79 215.284 11.934 216.526L12.654 223.366Q12.834 225.022 12.294 226.111Q11.754 227.2 10.701 227.83Q9.648 228.46 8.253 228.721Q6.858 228.982 5.346 228.982L5.346 226.606Q6.66 226.606 7.731 226.354Q8.802 226.102 9.396 225.472Q9.99 224.842 9.882 223.726L9.126 216.346Q8.964 214.744 9.306 213.763Q9.648 212.782 10.539 212.26Q11.43 211.738 12.888 211.54Q11.484 211.306 10.593 210.73Q9.702 210.154 9.342 209.164Q8.982 208.174 9.126 206.662L9.882 199.282Q9.99 198.184 9.396 197.554Q8.802 196.924 7.74 196.663Q6.678 196.402 5.346 196.402L5.346 194.026Z" />
      </g>
    </g>
    <g id="GITHUB-.-HXGN-" fill="#202025" transform="translate(672.6416 88)" artboard="6ef62b12-ce8b-457c-aa58-eeb3c352d145">
      <path d="M4.008 23.2603Q5.52 24.2263 7.632 24.2263Q9.372 24.2263 10.698 23.7943Q12.024 23.3623 13.2 22.7023L13.2 14.6743L7.392 14.6743L7.692 16.7983L10.5 16.7983L10.5 21.3583Q9.888 21.6943 9.204 21.8743Q8.52 22.0543 7.764 22.0543Q6.456 22.0543 5.574 21.4063Q4.692 20.7583 4.248 19.3363Q3.804 17.9143 3.804 15.6103Q3.804 13.8223 4.158 12.5923Q4.512 11.3623 5.124 10.6123Q5.736 9.86234 6.522 9.52034Q7.308 9.17834 8.184 9.17834Q9.156 9.17834 9.942 9.50834Q10.728 9.83834 11.484 10.5343L13.044 8.91434Q12.072 8.01434 10.938 7.51034Q9.804 7.00634 8.112 7.00634Q6.66 7.00634 5.358 7.55234Q4.056 8.09834 3.048 9.17834Q2.04 10.2583 1.464 11.8663Q0.888 13.4743 0.888 15.5983Q0.888 18.4543 1.692 20.3743Q2.496 22.2943 4.008 23.2603ZM162.408 23.2603Q163.92 24.2263 166.032 24.2263Q167.772 24.2263 169.098 23.7943Q170.424 23.3623 171.6 22.7023L171.6 14.6743L165.792 14.6743L166.092 16.7983L168.9 16.7983L168.9 21.3583Q168.288 21.6943 167.604 21.8743Q166.92 22.0543 166.164 22.0543Q164.856 22.0543 163.974 21.4063Q163.092 20.7583 162.648 19.3363Q162.204 17.9143 162.204 15.6103Q162.204 13.8223 162.558 12.5923Q162.912 11.3623 163.524 10.6123Q164.136 9.86234 164.922 9.52034Q165.708 9.17834 166.584 9.17834Q167.556 9.17834 168.342 9.50834Q169.128 9.83834 169.884 10.5343L171.444 8.91434Q170.472 8.01434 169.338 7.51034Q168.204 7.00634 166.512 7.00634Q165.06 7.00634 163.758 7.55234Q162.456 8.09834 161.448 9.17834Q160.44 10.2583 159.864 11.8663Q159.288 13.4743 159.288 15.5983Q159.288 18.4543 160.092 20.3743Q160.896 22.2943 162.408 23.2603ZM26.58 9.46634L26.58 7.34234L16.62 7.34234L16.62 9.46634L20.196 9.46634L20.196 21.7663L16.62 21.7663L16.62 23.9023L26.58 23.9023L26.58 21.7663L23.004 21.7663L23.004 9.46634L26.58 9.46634ZM37.356 9.58634L37.356 23.9023L34.572 23.9023L34.572 9.58634L29.604 9.58634L29.604 7.34234L42.444 7.34234L42.156 9.58634L37.356 9.58634ZM53.1 16.3783L53.1 23.9023L55.884 23.9023L55.884 7.34234L53.1 7.34234L53.1 14.0863L47.7 14.0863L47.7 7.34234L44.916 7.34234L44.916 23.9023L47.7 23.9023L47.7 16.3783L53.1 16.3783ZM70.536 7.34234L70.536 18.4663Q70.536 20.1583 69.858 21.4543Q69.18 22.7503 67.89 23.4883Q66.6 24.2263 64.788 24.2263Q62.94 24.2263 61.668 23.5003Q60.396 22.7743 59.73 21.4723Q59.064 20.1703 59.064 18.4663L59.064 7.34234L61.848 7.34234L61.848 17.9623Q61.848 19.9783 62.544 20.9923Q63.24 22.0063 64.788 22.0063Q66.336 22.0063 67.038 20.9923Q67.74 19.9783 67.74 17.9623L67.74 7.34234L70.536 7.34234ZM84.696 21.4363Q85.236 20.5063 85.236 19.1263Q85.236 17.7583 84.666 16.9303Q84.096 16.1023 83.226 15.6883Q82.356 15.2743 81.456 15.1303Q82.248 14.9383 82.95 14.4883Q83.652 14.0383 84.084 13.3063Q84.516 12.5743 84.516 11.5303Q84.516 10.3183 84.012 9.50834Q83.508 8.69834 82.65 8.21834Q81.792 7.73834 80.712 7.54034Q79.632 7.34234 78.468 7.34234L73.944 7.34234L73.944 23.9023L78.792 23.9023Q80.016 23.9023 81.168 23.6743Q82.32 23.4463 83.238 22.9063Q84.156 22.3663 84.696 21.4363ZM139.5 16.3783L139.5 23.9023L142.284 23.9023L142.284 7.34234L139.5 7.34234L139.5 14.0863L134.1 14.0863L134.1 7.34234L131.316 7.34234L131.316 23.9023L134.1 23.9023L134.1 16.3783L139.5 16.3783ZM144.912 7.34234L147.996 7.34234L151.2 13.3063L154.44 7.34234L157.404 7.34234L152.82 14.9503L157.908 23.9023L154.824 23.9023L151.152 16.8583L147.468 23.9023L144.492 23.9023L149.508 15.0823L144.912 7.34234ZM176.592 9.81434Q176.628 10.1863 176.694 10.8703Q176.76 11.5543 176.826 12.4543Q176.892 13.3543 176.94 14.3623Q176.988 15.3703 176.988 16.3783L176.988 23.9023L174.516 23.9023L174.516 7.34234L178.128 7.34234L183.408 21.4423Q183.348 20.9383 183.258 19.9603Q183.168 18.9823 183.09 17.6803Q183.012 16.3783 183.012 14.8903L183.012 7.34234L185.484 7.34234L185.484 23.9023L181.86 23.9023L176.592 9.81434ZM80.916 9.97034Q81.696 10.5103 81.696 11.7583Q81.696 13.0543 80.988 13.6363Q80.28 14.2183 78.888 14.2183L76.728 14.2183L76.728 9.43034L78.72 9.43034Q80.136 9.43034 80.916 9.97034ZM207.78 14.6263L207.48 9.88634L210.12 9.88634L209.82 14.6263L214.224 12.8983L215.028 15.3703L210.444 16.5583L213.456 20.2303L211.356 21.7423L208.8 17.7583L206.244 21.7423L204.144 20.2303L207.156 16.5583L202.572 15.3703L203.376 12.8983L207.78 14.6263ZM81.9 17.3863Q82.332 17.9983 82.332 19.1143Q82.332 19.9423 82.038 20.4583Q81.744 20.9743 81.252 21.2563Q80.76 21.5383 80.166 21.6403Q79.572 21.7423 78.972 21.7423L76.728 21.7423L76.728 16.2823L79.092 16.2823Q80.004 16.2823 80.736 16.5283Q81.468 16.7743 81.9 17.3863ZM105.672 21.8983Q105.672 21.2503 105.978 20.7283Q106.284 20.2063 106.812 19.8943Q107.34 19.5823 107.988 19.5823Q108.648 19.5823 109.176 19.8943Q109.704 20.2063 110.01 20.7283Q110.316 21.2503 110.316 21.8983Q110.316 22.5343 110.01 23.0683Q109.704 23.6023 109.176 23.9143Q108.648 24.2263 107.988 24.2263Q107.34 24.2263 106.812 23.9143Q106.284 23.6023 105.978 23.0683Q105.672 22.5343 105.672 21.8983Z" />
    </g>
  </g>
</svg>